<svg xmlns="http://www.w3.org/2000/svg" width="900" height="300" viewBox="0 0 900 300" role="img" aria-labelledby="title desc">
<title id="title">p3achii — drawing &amp; game dev</title>
<desc id="desc">Animated seaside banner: the name p3achii bobbing in pixel letters, a sea otter floating on the waves hugging a peach, and a typewriter cycling through: hi, i'm p3achii ~ / i draw &amp; make games / unity (mostly 3d) · c / c# / currently: live2d rigging / drawing for game dev ✦</desc>
<style>
.mono { font-family: ui-monospace, 'SFMono-Regular', 'Cascadia Mono', Menlo, Consolas, 'Liberation Mono', monospace; }

.hop { animation: hop 2.6s ease-in-out infinite; }
@keyframes hop { 0%, 100% { transform: translateY(0); } 50% { transform: translateY(-7px); } }
.cloud { animation: cloud linear infinite; }
@keyframes cloud { from { transform: translateX(920px); } to { transform: translateX(-110px); } }
.twinkle { animation: twinkle 2.4s ease-in-out infinite; transform-box: fill-box; transform-origin: center; }
@keyframes twinkle { 0%, 100% { opacity: .25; transform: scale(.6); } 50% { opacity: 1; transform: scale(1); } }
.caret { animation: caret 1s steps(1) infinite; }
@keyframes caret { 50% { opacity: 0; } }
.bob { animation: bob 3.2s ease-in-out infinite; transform-box: fill-box; transform-origin: 50% 80%; }
@keyframes bob { 0%, 100% { transform: translateY(0) rotate(-2.5deg); } 50% { transform: translateY(6px) rotate(2.5deg); } }
.blink { opacity: 0; animation: blink 4.5s infinite; }
@keyframes blink { 0%, 90%, 96%, 100% { opacity: 0; } 91%, 95% { opacity: 1; } }
.ripple { opacity: 0; animation: ripple 2.8s ease-out infinite; transform-box: fill-box; transform-origin: center; }
@keyframes ripple { 0% { opacity: .9; transform: scale(.55); } 100% { opacity: 0; transform: scale(1.25); } }
.glint { animation: glint 2.2s ease-in-out infinite; }
@keyframes glint { 0%, 100% { opacity: .15; } 50% { opacity: .9; } }
.bubble { opacity: 0; animation: bubble 4.2s ease-in infinite; }
@keyframes bubble { 0% { opacity: 0; transform: translateY(0); } 20% { opacity: .9; } 100% { opacity: 0; transform: translateY(-44px); } }
.sunring { animation: sunring 4s ease-out infinite; transform-box: fill-box; transform-origin: center; }
@keyframes sunring { 0% { opacity: .7; transform: scale(.9); } 100% { opacity: 0; transform: scale(1.35); } }
@media (prefers-reduced-motion: reduce) { * { animation: none !important; } }
</style>
<defs>
<clipPath id="frame"><rect x="2" y="2" width="888" height="288" rx="22"/></clipPath>
<linearGradient id="sky" x1="0" y1="0" x2="0" y2="1"><stop offset="0" stop-color="#FBF4EE"/><stop offset="1" stop-color="#F6DFCF"/></linearGradient>
<pattern id="dots" width="18" height="18" patternUnits="userSpaceOnUse"><rect x="8" y="8" width="2" height="2" fill="#DCC4B1" opacity=".6"/></pattern>
<clipPath id="type0"><rect x="98" y="168" width="0" height="35.2"><animate attributeName="width" values="0;13.2;26.4;39.6;52.8;66;79.2;92.4;105.6;118.8;132;145.2;158.4;171.6;184.8;198;211.2;224.4;211.2;198;184.8;171.6;158.4;145.2;132;118.8;105.6;92.4;79.2;66;52.8;39.6;26.4;13.2;0" keyTimes="0.00000;0.00317;0.00633;0.00950;0.01266;0.01583;0.01899;0.02216;0.02532;0.02849;0.03165;0.03482;0.03798;0.04115;0.04431;0.04748;0.05064;0.05381;0.13948;0.14075;0.14201;0.14328;0.14455;0.14581;0.14708;0.14834;0.14961;0.15088;0.15214;0.15341;0.15467;0.15594;0.15721;0.15847;0.15974" dur="23.7s" calcMode="discrete" repeatCount="indefinite"/></rect></clipPath><clipPath id="type1"><rect x="98" y="168" width="0" height="35.2"><animate attributeName="width" values="0;13.2;26.4;39.6;52.8;66;79.2;92.4;105.6;118.8;132;145.2;158.4;171.6;184.8;198;211.2;224.4;237.6;250.8;237.6;224.4;211.2;198;184.8;171.6;158.4;145.2;132;118.8;105.6;92.4;79.2;66;52.8;39.6;26.4;13.2;0" keyTimes="0.00000;0.18189;0.18506;0.18823;0.19139;0.19456;0.19772;0.20089;0.20405;0.20722;0.21038;0.21355;0.21671;0.21988;0.22304;0.22621;0.22937;0.23254;0.23570;0.23887;0.32454;0.32581;0.32707;0.32834;0.32961;0.33087;0.33214;0.33340;0.33467;0.33594;0.33720;0.33847;0.33973;0.34100;0.34227;0.34353;0.34480;0.34606;0.34733" dur="23.7s" calcMode="discrete" repeatCount="indefinite"/></rect></clipPath><clipPath id="type2"><rect x="98" y="168" width="0" height="35.2"><animate attributeName="width" values="0;13.2;26.4;39.6;52.8;66;79.2;92.4;105.6;118.8;132;145.2;158.4;171.6;184.8;198;211.2;224.4;237.6;250.8;264;277.2;290.4;303.6;316.8;330;343.2;330;316.8;303.6;290.4;277.2;264;250.8;237.6;224.4;211.2;198;184.8;171.6;158.4;145.2;132;118.8;105.6;92.4;79.2;66;52.8;39.6;26.4;13.2;0" keyTimes="0.00000;0.36949;0.37265;0.37582;0.37898;0.38215;0.38531;0.38848;0.39164;0.39481;0.39797;0.40114;0.40430;0.40747;0.41064;0.41380;0.41697;0.42013;0.42330;0.42646;0.42963;0.43279;0.43596;0.43912;0.44229;0.44545;0.44862;0.53429;0.53556;0.53682;0.53809;0.53935;0.54062;0.54189;0.54315;0.54442;0.54568;0.54695;0.54822;0.54948;0.55075;0.55202;0.55328;0.55455;0.55581;0.55708;0.55835;0.55961;0.56088;0.56214;0.56341;0.56468;0.56594" dur="23.7s" calcMode="discrete" repeatCount="indefinite"/></rect></clipPath><clipPath id="type3"><rect x="98" y="168" width="0" height="35.2"><animate attributeName="width" values="0;13.2;26.4;39.6;52.8;66;79.2;92.4;105.6;118.8;132;145.2;158.4;171.6;184.8;198;211.2;224.4;237.6;250.8;264;277.2;290.4;303.6;316.8;330;316.8;303.6;290.4;277.2;264;250.8;237.6;224.4;211.2;198;184.8;171.6;158.4;145.2;132;118.8;105.6;92.4;79.2;66;52.8;39.6;26.4;13.2;0" keyTimes="0.00000;0.58810;0.59126;0.59443;0.59759;0.60076;0.60392;0.60709;0.61026;0.61342;0.61659;0.61975;0.62292;0.62608;0.62925;0.63241;0.63558;0.63874;0.64191;0.64507;0.64824;0.65140;0.65457;0.65773;0.66090;0.66406;0.74974;0.75100;0.75227;0.75353;0.75480;0.75607;0.75733;0.75860;0.75986;0.76113;0.76240;0.76366;0.76493;0.76620;0.76746;0.76873;0.76999;0.77126;0.77253;0.77379;0.77506;0.77632;0.77759;0.77886;0.78012" dur="23.7s" calcMode="discrete" repeatCount="indefinite"/></rect></clipPath><clipPath id="type4"><rect x="98" y="168" width="0" height="35.2"><animate attributeName="width" values="0;13.2;26.4;39.6;52.8;66;79.2;92.4;105.6;118.8;132;145.2;158.4;171.6;184.8;198;211.2;224.4;237.6;250.8;264;277.2;290.4;277.2;264;250.8;237.6;224.4;211.2;198;184.8;171.6;158.4;145.2;132;118.8;105.6;92.4;79.2;66;52.8;39.6;26.4;13.2;0" keyTimes="0.00000;0.80228;0.80544;0.80861;0.81177;0.81494;0.81811;0.82127;0.82444;0.82760;0.83077;0.83393;0.83710;0.84026;0.84343;0.84659;0.84976;0.85292;0.85609;0.85925;0.86242;0.86558;0.86875;0.95442;0.95569;0.95695;0.95822;0.95949;0.96075;0.96202;0.96328;0.96455;0.96582;0.96708;0.96835;0.96961;0.97088;0.97215;0.97341;0.97468;0.97594;0.97721;0.97848;0.97974;0.98101" dur="23.7s" calcMode="discrete" repeatCount="indefinite"/></rect></clipPath></defs>

<rect x="9" y="9" width="888" height="288" rx="22" fill="#8C5C47"/>
<g clip-path="url(#frame)">
  <rect width="900" height="300" fill="url(#sky)"/>
  <rect width="900" height="300" fill="url(#dots)"/>
  <circle class="sunring" cx="768" cy="176" r="74" fill="none" stroke="#F4A48A" stroke-width="3"/>
  <circle class="sunring" style="animation-delay:-2s" cx="768" cy="176" r="74" fill="none" stroke="#F4A48A" stroke-width="3"/>
  <g transform="translate(698 106) scale(5)" shape-rendering="crispEdges"><path fill="#F7BDA2" d="M12 0h4v1h-4zM9 1h10v1h-10zM7 2h14v1h-14zM5 3h18v1h-18zM4 4h6v1h-6zM18 4h6v1h-6zM3 5h5v1h-5zM20 5h5v1h-5zM3 6h4v1h-4zM21 6h4v1h-4zM2 7h4v1h-4zM22 7h4v1h-4zM2 8h3v1h-3zM23 8h3v1h-3zM1 9h4v1h-4zM23 9h4v1h-4zM1 10h3v1h-3zM24 10h3v1h-3zM1 11h3v1h-3zM24 11h3v1h-3zM0 12h4v1h-4zM24 12h4v1h-4zM0 13h4v1h-4zM24 13h4v1h-4zM0 14h4v1h-4zM24 14h4v1h-4zM0 15h4v1h-4zM24 15h4v1h-4zM1 16h3v1h-3zM24 16h3v1h-3zM1 17h3v1h-3zM24 17h3v1h-3zM1 18h4v1h-4zM23 18h4v1h-4zM2 19h3v1h-3zM23 19h3v1h-3zM2 20h4v1h-4zM22 20h4v1h-4zM3 21h4v1h-4zM21 21h4v1h-4zM3 22h5v1h-5zM20 22h5v1h-5zM4 23h6v1h-6zM18 23h6v1h-6zM5 24h18v1h-18zM7 25h14v1h-14zM9 26h10v1h-10zM12 27h4v1h-4z"/><path fill="#F9CDB5" d="M10 4h8v1h-8zM8 5h12v1h-12zM7 6h14v1h-14zM6 7h4v1h-4zM13 7h9v1h-9zM5 8h3v1h-3zM15 8h8v1h-8zM5 9h3v1h-3zM15 9h8v1h-8zM4 10h3v1h-3zM16 10h8v1h-8zM4 11h4v1h-4zM15 11h9v1h-9zM4 12h4v1h-4zM15 12h9v1h-9zM4 13h6v1h-6zM13 13h11v1h-11zM4 14h20v1h-20zM4 15h20v1h-20zM4 16h20v1h-20zM4 17h20v1h-20zM5 18h18v1h-18zM5 19h18v1h-18zM6 20h16v1h-16zM7 21h14v1h-14zM8 22h12v1h-12zM10 23h8v1h-8z"/><path fill="#FBDDCB" d="M10 7h3v1h-3zM8 8h7v1h-7zM8 9h7v1h-7zM7 10h9v1h-9zM8 11h7v1h-7zM8 12h7v1h-7zM10 13h3v1h-3z"/></g>
  <g class="cloud" style="animation-duration:70s;animation-delay:-8s"><g transform="translate(0 34) scale(3)" shape-rendering="crispEdges"><path fill="#DCC6B5" d="M14 0h8v1h-8zM13 1h1v1h-1zM22 1h1v1h-1zM12 2h1v1h-1zM23 2h1v1h-1zM6 3h6v1h-6zM24 3h1v1h-1zM5 4h1v1h-1zM25 4h3v1h-3zM4 5h1v1h-1zM28 5h1v1h-1zM3 6h1v1h-1zM29 6h1v1h-1zM3 7h1v1h-1zM30 7h1v1h-1zM3 8h1v1h-1zM30 8h1v1h-1zM3 9h1v1h-1zM30 9h1v1h-1zM4 10h1v1h-1zM30 10h1v1h-1zM4 11h1v1h-1zM28 11h2v1h-2zM5 12h23v1h-23z"/><path fill="#FFF9F4" d="M14 1h8v1h-8zM13 2h10v1h-10zM12 3h12v1h-12zM6 4h19v1h-19zM5 5h23v1h-23zM4 6h25v1h-25zM4 7h26v1h-26zM4 8h26v1h-26zM4 9h26v1h-26z"/><path fill="#F3E6DC" d="M5 10h25v1h-25zM5 11h23v1h-23z"/></g></g><g class="cloud" style="animation-duration:95s;animation-delay:-60s"><g transform="translate(0 98) scale(2)" shape-rendering="crispEdges"><path fill="#DCC6B5" d="M14 0h8v1h-8zM13 1h1v1h-1zM22 1h1v1h-1zM12 2h1v1h-1zM23 2h1v1h-1zM6 3h6v1h-6zM24 3h1v1h-1zM5 4h1v1h-1zM25 4h3v1h-3zM4 5h1v1h-1zM28 5h1v1h-1zM3 6h1v1h-1zM29 6h1v1h-1zM3 7h1v1h-1zM30 7h1v1h-1zM3 8h1v1h-1zM30 8h1v1h-1zM3 9h1v1h-1zM30 9h1v1h-1zM4 10h1v1h-1zM30 10h1v1h-1zM4 11h1v1h-1zM28 11h2v1h-2zM5 12h23v1h-23z"/><path fill="#FFF9F4" d="M14 1h8v1h-8zM13 2h10v1h-10zM12 3h12v1h-12zM6 4h19v1h-19zM5 5h23v1h-23zM4 6h25v1h-25zM4 7h26v1h-26zM4 8h26v1h-26zM4 9h26v1h-26z"/><path fill="#F3E6DC" d="M5 10h25v1h-25zM5 11h23v1h-23z"/></g></g><g class="cloud" style="animation-duration:82s;animation-delay:-33s"><g transform="translate(0 58) scale(2)" shape-rendering="crispEdges"><path fill="#DCC6B5" d="M14 0h8v1h-8zM13 1h1v1h-1zM22 1h1v1h-1zM12 2h1v1h-1zM23 2h1v1h-1zM6 3h6v1h-6zM24 3h1v1h-1zM5 4h1v1h-1zM25 4h3v1h-3zM4 5h1v1h-1zM28 5h1v1h-1zM3 6h1v1h-1zM29 6h1v1h-1zM3 7h1v1h-1zM30 7h1v1h-1zM3 8h1v1h-1zM30 8h1v1h-1zM3 9h1v1h-1zM30 9h1v1h-1zM4 10h1v1h-1zM30 10h1v1h-1zM4 11h1v1h-1zM28 11h2v1h-2zM5 12h23v1h-23z"/><path fill="#FFF9F4" d="M14 1h8v1h-8zM13 2h10v1h-10zM12 3h12v1h-12zM6 4h19v1h-19zM5 5h23v1h-23zM4 6h25v1h-25zM4 7h26v1h-26zM4 8h26v1h-26zM4 9h26v1h-26z"/><path fill="#F3E6DC" d="M5 10h25v1h-25zM5 11h23v1h-23z"/></g></g>
  <g class="twinkle" style="animation-delay:0s"><g transform="translate(532 44) scale(3)" shape-rendering="crispEdges"><path fill="#016180" d="M3 0h1v1h-1zM3 1h1v1h-1zM2 2h3v1h-3zM0 3h7v1h-7zM2 4h3v1h-3zM3 5h1v1h-1zM3 6h1v1h-1z"/></g></g><g class="twinkle" style="animation-delay:-0.8s"><g transform="translate(610 96) scale(3)" shape-rendering="crispEdges"><path fill="#DC7D68" d="M3 0h1v1h-1zM3 1h1v1h-1zM2 2h3v1h-3zM0 3h7v1h-7zM2 4h3v1h-3zM3 5h1v1h-1zM3 6h1v1h-1z"/></g></g><g class="twinkle" style="animation-delay:-1.6s"><g transform="translate(548 128) scale(3)" shape-rendering="crispEdges"><path fill="#4A8CB0" d="M3 0h1v1h-1zM3 1h1v1h-1zM2 2h3v1h-3zM0 3h7v1h-7zM2 4h3v1h-3zM3 5h1v1h-1zM3 6h1v1h-1z"/></g></g><g class="twinkle" style="animation-delay:-2.1s"><g transform="translate(840 40) scale(3)" shape-rendering="crispEdges"><path fill="#016180" d="M3 0h1v1h-1zM3 1h1v1h-1zM2 2h3v1h-3zM0 3h7v1h-7zM2 4h3v1h-3zM3 5h1v1h-1zM3 6h1v1h-1z"/></g></g><g class="twinkle" style="animation-delay:-1.1s"><g transform="translate(30 150) scale(3)" shape-rendering="crispEdges"><path fill="#4A8CB0" d="M3 0h1v1h-1zM3 1h1v1h-1zM2 2h3v1h-3zM0 3h7v1h-7zM2 4h3v1h-3zM3 5h1v1h-1zM3 6h1v1h-1z"/></g></g>
  <g class="hop" style="animation-delay:0s"><path transform="translate(64 46) scale(10)" fill="#F4A48A" d="M0 2h5v1h-5zM0 3h2v1h-2zM4 3h2v1h-2zM0 4h2v1h-2zM4 4h2v1h-2zM0 5h2v1h-2zM4 5h2v1h-2zM0 6h5v1h-5zM0 7h2v1h-2zM0 8h2v1h-2z"/><path transform="translate(58 40) scale(10)" fill="#4C2C17" d="M0 2h5v1h-5zM0 3h2v1h-2zM4 3h2v1h-2zM0 4h2v1h-2zM4 4h2v1h-2zM0 5h2v1h-2zM4 5h2v1h-2zM0 6h5v1h-5zM0 7h2v1h-2zM0 8h2v1h-2z"/></g><g class="hop" style="animation-delay:-0.16s"><path transform="translate(134 46) scale(10)" fill="#F4A48A" d="M1 0h4v1h-4zM0 1h2v1h-2zM4 1h2v1h-2zM4 2h2v1h-2zM2 3h3v1h-3zM4 4h2v1h-2zM0 5h2v1h-2zM4 5h2v1h-2zM1 6h4v1h-4z"/><path transform="translate(128 40) scale(10)" fill="#4C2C17" d="M1 0h4v1h-4zM0 1h2v1h-2zM4 1h2v1h-2zM4 2h2v1h-2zM2 3h3v1h-3zM4 4h2v1h-2zM0 5h2v1h-2zM4 5h2v1h-2zM1 6h4v1h-4z"/></g><g class="hop" style="animation-delay:-0.32s"><path transform="translate(204 46) scale(10)" fill="#F4A48A" d="M1 2h4v1h-4zM4 3h2v1h-2zM1 4h5v1h-5zM0 5h2v1h-2zM4 5h2v1h-2zM1 6h5v1h-5z"/><path transform="translate(198 40) scale(10)" fill="#4C2C17" d="M1 2h4v1h-4zM4 3h2v1h-2zM1 4h5v1h-5zM0 5h2v1h-2zM4 5h2v1h-2zM1 6h5v1h-5z"/></g><g class="hop" style="animation-delay:-0.48s"><path transform="translate(274 46) scale(10)" fill="#F4A48A" d="M1 2h5v1h-5zM0 3h2v1h-2zM0 4h2v1h-2zM0 5h2v1h-2zM1 6h5v1h-5z"/><path transform="translate(268 40) scale(10)" fill="#4C2C17" d="M1 2h5v1h-5zM0 3h2v1h-2zM0 4h2v1h-2zM0 5h2v1h-2zM1 6h5v1h-5z"/></g><g class="hop" style="animation-delay:-0.64s"><path transform="translate(344 46) scale(10)" fill="#F4A48A" d="M0 0h2v1h-2zM0 1h2v1h-2zM0 2h5v1h-5zM0 3h3v1h-3zM4 3h2v1h-2zM0 4h2v1h-2zM4 4h2v1h-2zM0 5h2v1h-2zM4 5h2v1h-2zM0 6h2v1h-2zM4 6h2v1h-2z"/><path transform="translate(338 40) scale(10)" fill="#4C2C17" d="M0 0h2v1h-2zM0 1h2v1h-2zM0 2h5v1h-5zM0 3h3v1h-3zM4 3h2v1h-2zM0 4h2v1h-2zM4 4h2v1h-2zM0 5h2v1h-2zM4 5h2v1h-2zM0 6h2v1h-2zM4 6h2v1h-2z"/></g><g class="hop" style="animation-delay:-0.8s"><path transform="translate(414 46) scale(10)" fill="#F4A48A" d="M1 0h2v1h-2zM0 2h3v1h-3zM1 3h2v1h-2zM1 4h2v1h-2zM1 5h2v1h-2zM0 6h4v1h-4z"/><path transform="translate(408 40) scale(10)" fill="#4C2C17" d="M1 0h2v1h-2zM0 2h3v1h-3zM1 3h2v1h-2zM1 4h2v1h-2zM1 5h2v1h-2zM0 6h4v1h-4z"/></g><g class="hop" style="animation-delay:-0.96s"><path transform="translate(464 46) scale(10)" fill="#F4A48A" d="M1 0h2v1h-2zM0 2h3v1h-3zM1 3h2v1h-2zM1 4h2v1h-2zM1 5h2v1h-2zM0 6h4v1h-4z"/><path transform="translate(458 40) scale(10)" fill="#4C2C17" d="M1 0h2v1h-2zM0 2h3v1h-3zM1 3h2v1h-2zM1 4h2v1h-2zM1 5h2v1h-2zM0 6h4v1h-4z"/></g>
  <g transform="translate(58 166) scale(3)" shape-rendering="crispEdges"><path fill="#4C2C17" d="M4 0h1v1h-1zM7 0h1v1h-1zM3 1h1v1h-1zM6 1h1v1h-1zM2 2h1v1h-1zM6 2h1v1h-1zM1 3h1v1h-1zM7 3h1v1h-1zM0 4h1v1h-1zM8 4h1v1h-1zM0 5h1v1h-1zM8 5h1v1h-1zM1 6h1v1h-1zM7 6h1v1h-1zM2 7h1v1h-1zM6 7h1v1h-1zM3 8h3v1h-3z"/><path fill="#016180" d="M5 0h2v1h-2zM5 1h1v1h-1z"/><path fill="#8C5C47" d="M4 1h1v1h-1z"/><path fill="#F4A48A" d="M3 2h3v1h-3zM2 3h5v1h-5zM1 4h2v1h-2zM4 4h3v1h-3zM1 5h5v1h-5zM2 6h3v1h-3z"/><path fill="#FFF9F4" d="M3 4h1v1h-1z"/><path fill="#DC7D68" d="M7 4h1v1h-1zM6 5h2v1h-2zM5 6h2v1h-2zM3 7h3v1h-3z"/></g>
  <text class="mono" x="98" y="190" font-size="22" fill="#4C2C17" textLength="224.4" lengthAdjust="spacingAndGlyphs" xml:space="preserve" clip-path="url(#type0)">hi, i'm p3achii ~</text><text class="mono" x="98" y="190" font-size="22" fill="#4C2C17" textLength="250.8" lengthAdjust="spacingAndGlyphs" xml:space="preserve" clip-path="url(#type1)">i draw &amp; make games</text><text class="mono" x="98" y="190" font-size="22" fill="#4C2C17" textLength="343.2" lengthAdjust="spacingAndGlyphs" xml:space="preserve" clip-path="url(#type2)">unity (mostly 3d) · c / c#</text><text class="mono" x="98" y="190" font-size="22" fill="#4C2C17" textLength="330" lengthAdjust="spacingAndGlyphs" xml:space="preserve" clip-path="url(#type3)">currently: live2d rigging</text><text class="mono" x="98" y="190" font-size="22" fill="#4C2C17" textLength="290.4" lengthAdjust="spacingAndGlyphs" xml:space="preserve" clip-path="url(#type4)">drawing for game dev ✦</text><rect class="caret" x="98" y="171.96" width="10.56" height="22" fill="#016180"><animate attributeName="x" values="100;113.2;126.4;139.6;152.8;166;179.2;192.4;205.6;218.8;232;245.2;258.4;271.6;284.8;298;311.2;324.4;311.2;298;284.8;271.6;258.4;245.2;232;218.8;205.6;192.4;179.2;166;152.8;139.6;126.4;113.2;100;113.2;126.4;139.6;152.8;166;179.2;192.4;205.6;218.8;232;245.2;258.4;271.6;284.8;298;311.2;324.4;337.6;350.8;337.6;324.4;311.2;298;284.8;271.6;258.4;245.2;232;218.8;205.6;192.4;179.2;166;152.8;139.6;126.4;113.2;100;113.2;126.4;139.6;152.8;166;179.2;192.4;205.6;218.8;232;245.2;258.4;271.6;284.8;298;311.2;324.4;337.6;350.8;364;377.2;390.4;403.6;416.8;430;443.2;430;416.8;403.6;390.4;377.2;364;350.8;337.6;324.4;311.2;298;284.8;271.6;258.4;245.2;232;218.8;205.6;192.4;179.2;166;152.8;139.6;126.4;113.2;100;113.2;126.4;139.6;152.8;166;179.2;192.4;205.6;218.8;232;245.2;258.4;271.6;284.8;298;311.2;324.4;337.6;350.8;364;377.2;390.4;403.6;416.8;430;416.8;403.6;390.4;377.2;364;350.8;337.6;324.4;311.2;298;284.8;271.6;258.4;245.2;232;218.8;205.6;192.4;179.2;166;152.8;139.6;126.4;113.2;100;113.2;126.4;139.6;152.8;166;179.2;192.4;205.6;218.8;232;245.2;258.4;271.6;284.8;298;311.2;324.4;337.6;350.8;364;377.2;390.4;377.2;364;350.8;337.6;324.4;311.2;298;284.8;271.6;258.4;245.2;232;218.8;205.6;192.4;179.2;166;152.8;139.6;126.4;113.2;100" keyTimes="0.00000;0.00317;0.00633;0.00950;0.01266;0.01583;0.01899;0.02216;0.02532;0.02849;0.03165;0.03482;0.03798;0.04115;0.04431;0.04748;0.05064;0.05381;0.13948;0.14075;0.14201;0.14328;0.14455;0.14581;0.14708;0.14834;0.14961;0.15088;0.15214;0.15341;0.15467;0.15594;0.15721;0.15847;0.15974;0.18189;0.18506;0.18823;0.19139;0.19456;0.19772;0.20089;0.20405;0.20722;0.21038;0.21355;0.21671;0.21988;0.22304;0.22621;0.22937;0.23254;0.23570;0.23887;0.32454;0.32581;0.32707;0.32834;0.32961;0.33087;0.33214;0.33340;0.33467;0.33594;0.33720;0.33847;0.33973;0.34100;0.34227;0.34353;0.34480;0.34606;0.34733;0.36949;0.37265;0.37582;0.37898;0.38215;0.38531;0.38848;0.39164;0.39481;0.39797;0.40114;0.40430;0.40747;0.41064;0.41380;0.41697;0.42013;0.42330;0.42646;0.42963;0.43279;0.43596;0.43912;0.44229;0.44545;0.44862;0.53429;0.53556;0.53682;0.53809;0.53935;0.54062;0.54189;0.54315;0.54442;0.54568;0.54695;0.54822;0.54948;0.55075;0.55202;0.55328;0.55455;0.55581;0.55708;0.55835;0.55961;0.56088;0.56214;0.56341;0.56468;0.56594;0.58810;0.59126;0.59443;0.59759;0.60076;0.60392;0.60709;0.61026;0.61342;0.61659;0.61975;0.62292;0.62608;0.62925;0.63241;0.63558;0.63874;0.64191;0.64507;0.64824;0.65140;0.65457;0.65773;0.66090;0.66406;0.74974;0.75100;0.75227;0.75353;0.75480;0.75607;0.75733;0.75860;0.75986;0.76113;0.76240;0.76366;0.76493;0.76620;0.76746;0.76873;0.76999;0.77126;0.77253;0.77379;0.77506;0.77632;0.77759;0.77886;0.78012;0.80228;0.80544;0.80861;0.81177;0.81494;0.81811;0.82127;0.82444;0.82760;0.83077;0.83393;0.83710;0.84026;0.84343;0.84659;0.84976;0.85292;0.85609;0.85925;0.86242;0.86558;0.86875;0.95442;0.95569;0.95695;0.95822;0.95949;0.96075;0.96202;0.96328;0.96455;0.96582;0.96708;0.96835;0.96961;0.97088;0.97215;0.97341;0.97468;0.97594;0.97721;0.97848;0.97974;0.98101" dur="23.7s" calcMode="discrete" repeatCount="indefinite"/></rect>
  <g><animateTransform attributeName="transform" type="translate" from="0 0" to="-120 0" dur="9s" repeatCount="indefinite"/><path d="M-120 226 Q-90 220 -60 226 T0 226 Q30 220 60 226 T120 226 Q150 220 180 226 T240 226 Q270 220 300 226 T360 226 Q390 220 420 226 T480 226 Q510 220 540 226 T600 226 Q630 220 660 226 T720 226 Q750 220 780 226 T840 226 Q870 220 900 226 T960 226 Q990 220 1020 226 T1080 226 Q1110 220 1140 226 T1200 226 L1140 320 L-120 320 Z" fill="#A9CDE1"/></g>
  <g><animateTransform attributeName="transform" type="translate" from="0 0" to="160 0" dur="12s" repeatCount="indefinite"/><path d="M-160 242 Q-120 235 -80 242 T0 242 Q40 235 80 242 T160 242 Q200 235 240 242 T320 242 Q360 235 400 242 T480 242 Q520 235 560 242 T640 242 Q680 235 720 242 T800 242 Q840 235 880 242 T960 242 Q1000 235 1040 242 T1120 242 Q1160 235 1200 242 T1280 242 L1220 320 L-160 320 Z" fill="#4A8CB0"/><path d="M-160 242 Q-120 235 -80 242 T0 242 Q40 235 80 242 T160 242 Q200 235 240 242 T320 242 Q360 235 400 242 T480 242 Q520 235 560 242 T640 242 Q680 235 720 242 T800 242 Q840 235 880 242 T960 242 Q1000 235 1040 242 T1120 242 Q1160 235 1200 242 T1280 242" fill="none" stroke="#D3E6F0" stroke-width="2.5" opacity=".7"/></g>
  <rect class="glint" style="animation-delay:0s" x="712" y="244" width="36" height="3" rx="1.5" fill="#FFF9F4"/><rect class="glint" style="animation-delay:-0.55s" x="750" y="250" width="22" height="3" rx="1.5" fill="#FFF9F4"/><rect class="glint" style="animation-delay:-1.1s" x="700" y="252" width="16" height="3" rx="1.5" fill="#FFF9F4"/><rect class="glint" style="animation-delay:-1.65s" x="770" y="246" width="26" height="3" rx="1.5" fill="#FFF9F4"/>
  <g transform="translate(560 196)">
  <g class="bob">
    <ellipse class="ripple" cx="68" cy="58" rx="70" ry="7" fill="none" stroke="#FFF9F4" stroke-width="2.5"/>
    <ellipse class="ripple" style="animation-delay:-1.4s" cx="68" cy="58" rx="70" ry="7" fill="none" stroke="#FFF9F4" stroke-width="2.5"/>
    <g transform="translate(0 0) scale(4)" shape-rendering="crispEdges"><path fill="#4C2C17" d="M19 0h2v1h-2zM18 1h1v1h-1zM21 1h1v1h-1zM9 2h3v1h-3zM17 2h1v1h-1zM20 2h1v1h-1zM22 2h8v1h-8zM6 3h3v1h-3zM12 3h1v1h-1zM16 3h1v1h-1zM21 3h1v1h-1zM30 3h1v1h-1zM5 4h1v1h-1zM12 4h1v1h-1zM15 4h1v1h-1zM21 4h1v1h-1zM31 4h1v1h-1zM5 5h1v1h-1zM12 5h3v1h-3zM31 5h1v1h-1zM5 6h1v1h-1zM32 6h1v1h-1zM5 7h1v1h-1zM32 7h1v1h-1zM5 8h1v1h-1zM32 8h1v1h-1zM2 9h3v1h-3zM31 9h1v1h-1zM1 10h1v1h-1zM31 10h1v1h-1zM0 11h1v1h-1zM30 11h1v1h-1zM1 12h1v1h-1zM7 12h1v1h-1zM22 12h8v1h-8zM2 13h5v1h-5zM8 13h3v1h-3zM19 13h3v1h-3zM11 14h8v1h-8z"/><path fill="#016180" d="M19 1h2v1h-2zM19 2h1v1h-1z"/><path fill="#8C5C47" d="M18 2h1v1h-1zM9 3h1v1h-1zM11 3h1v1h-1zM22 3h8v1h-8zM6 4h1v1h-1zM8 4h2v1h-2zM11 4h1v1h-1zM22 4h9v1h-9zM6 5h6v1h-6zM15 5h1v1h-1zM21 5h5v1h-5zM30 5h1v1h-1zM6 6h6v1h-6zM14 6h3v1h-3zM20 6h5v1h-5zM31 6h1v1h-1zM6 7h3v1h-3zM21 7h3v1h-3zM31 7h1v1h-1zM6 8h2v1h-2zM21 8h3v1h-3zM5 9h4v1h-4zM22 9h2v1h-2zM2 10h9v1h-9zM20 10h5v1h-5zM1 11h25v1h-25zM2 12h5v1h-5zM8 12h14v1h-14zM11 13h8v1h-8z"/><path fill="#6B4331" d="M10 3h1v1h-1zM7 4h1v1h-1zM10 4h1v1h-1zM27 10h2v1h-2z"/><path fill="#F4A48A" d="M17 3h3v1h-3zM16 4h1v1h-1zM18 4h2v1h-2zM16 5h3v1h-3z"/><path fill="#DC7D68" d="M20 3h1v1h-1zM20 4h1v1h-1zM19 5h2v1h-2zM17 6h3v1h-3z"/><path fill="#FFF9F4" d="M17 4h1v1h-1z"/><path fill="#F3E0D0" d="M26 5h4v1h-4zM25 6h6v1h-6zM24 7h2v1h-2zM27 7h2v1h-2zM30 7h1v1h-1zM24 8h2v1h-2zM27 8h2v1h-2zM30 8h2v1h-2zM24 9h1v1h-1zM26 9h1v1h-1zM29 9h1v1h-1zM25 10h2v1h-2zM29 10h2v1h-2zM26 11h4v1h-4z"/><path fill="#C8997E" d="M12 6h2v1h-2zM9 7h12v1h-12zM8 8h13v1h-13zM9 9h13v1h-13zM11 10h9v1h-9z"/><path fill="#2A160A" d="M26 7h1v1h-1zM29 7h1v1h-1zM26 8h1v1h-1zM29 8h1v1h-1zM27 9h2v1h-2z"/><path fill="#EFA193" d="M25 9h1v1h-1zM30 9h1v1h-1z"/></g>
    <g class="blink"><g transform="translate(0 0) scale(4)" shape-rendering="crispEdges"><path fill="#F3E0D0" d="M26 7h1v1h-1zM29 7h1v1h-1z"/><path fill="#2A160A" d="M25 8h2v1h-2zM29 8h2v1h-2z"/></g></g>
  </g>
</g>
  <g><animateTransform attributeName="transform" type="translate" from="0 0" to="-190 0" dur="8s" repeatCount="indefinite"/><path d="M-190 264 Q-142.5 256 -95 264 T0 264 Q47.5 256 95 264 T190 264 Q237.5 256 285 264 T380 264 Q427.5 256 475 264 T570 264 Q617.5 256 665 264 T760 264 Q807.5 256 855 264 T950 264 Q997.5 256 1045 264 T1140 264 Q1187.5 256 1235 264 T1330 264 L1280 320 L-190 320 Z" fill="#016180"/><path d="M-190 264 Q-142.5 256 -95 264 T0 264 Q47.5 256 95 264 T190 264 Q237.5 256 285 264 T380 264 Q427.5 256 475 264 T570 264 Q617.5 256 665 264 T760 264 Q807.5 256 855 264 T950 264 Q997.5 256 1045 264 T1140 264 Q1187.5 256 1235 264 T1330 264" fill="none" stroke="#A9CDE1" stroke-width="3" opacity=".8"/></g>
  <rect class="glint" style="animation-delay:0s" x="726" y="274" width="30" height="3" rx="1.5" fill="#D3E6F0"/><rect class="glint" style="animation-delay:-0.55s" x="764" y="282" width="18" height="3" rx="1.5" fill="#D3E6F0"/><rect class="glint" style="animation-delay:-1.1s" x="704" y="286" width="14" height="3" rx="1.5" fill="#D3E6F0"/>
  <rect class="bubble" style="animation-delay:0s" x="150" y="286" width="6" height="6" rx="3" fill="none" stroke="#FFF9F4" stroke-width="1.6"/><rect class="bubble" style="animation-delay:-1.2s" x="300" y="286" width="6" height="6" rx="3" fill="none" stroke="#FFF9F4" stroke-width="1.6"/><rect class="bubble" style="animation-delay:-2.5s" x="455" y="286" width="6" height="6" rx="3" fill="none" stroke="#FFF9F4" stroke-width="1.6"/><rect class="bubble" style="animation-delay:-0.6s" x="812" y="286" width="6" height="6" rx="3" fill="none" stroke="#FFF9F4" stroke-width="1.6"/><rect class="bubble" style="animation-delay:-3.1s" x="640" y="286" width="6" height="6" rx="3" fill="none" stroke="#FFF9F4" stroke-width="1.6"/>
</g>
<rect x="2" y="2" width="888" height="288" rx="22" fill="none" stroke="#4C2C17" stroke-width="3"/>
</svg>
